HIERARCHY
ROOT Hips
{
	OFFSET 0.000000 71.427986 0.000000
	CHANNELS 6 Xposition Yposition Zposition Xrotation Yrotation Zrotation
	JOINT Pelvis
	{
		OFFSET 0.000000 0.000000 0.000000
		CHANNELS 3 Xrotation Yrotation Zrotation
		JOINT LeftUpLeg
		{
			OFFSET 6.797100 -2.508499 -1.318700
			CHANNELS 3 Xrotation Yrotation Zrotation
			JOINT LeftLeg
			{
				OFFSET 0.069008 -29.241863 0.690200
				CHANNELS 3 Xrotation Yrotation Zrotation
				JOINT LeftFoot
				{
					OFFSET -0.069008 -29.568123 -0.266800
					CHANNELS 3 Xrotation Yrotation Zrotation
					JOINT LeftToeBase
					{
						OFFSET 3.145500 -8.631000 16.059900
						CHANNELS 3 Xrotation Yrotation Zrotation
						End Site
						{
							OFFSET 0.000000 18.501587 0.000000
						}
					}
				}
			}
			JOINT Left_ShortSleeve
			{
				OFFSET 0.265923 -10.480953 1.153800
				CHANNELS 3 Xrotation Yrotation Zrotation
				End Site
				{
					OFFSET 1.725763 19.823879 0.000000
				}
			}
		}
		JOINT RightUpLeg
		{
			OFFSET -6.797100 -2.508499 -1.318700
			CHANNELS 3 Xrotation Yrotation Zrotation
			JOINT RightLeg
			{
				OFFSET -0.082453 -29.241932 0.688000
				CHANNELS 3 Xrotation Yrotation Zrotation
				JOINT RightFoot
				{
					OFFSET 0.082453 -29.568058 -0.264600
					CHANNELS 3 Xrotation Yrotation Zrotation
					JOINT RightToeBase
					{
						OFFSET -3.115300 -8.682800 16.113400
						CHANNELS 3 Xrotation Yrotation Zrotation
						End Site
						{
							OFFSET 0.000000 18.567114 0.000000
						}
					}
				}
			}
			JOINT Right_ShortSleeve
			{
				OFFSET -0.265923 -10.480953 1.153800
				CHANNELS 3 Xrotation Yrotation Zrotation
				End Site
				{
					OFFSET -1.725766 19.823910 0.000000
				}
			}
		}
	}
	JOINT Spine
	{
		OFFSET 0.000000 13.368103 0.470500
		CHANNELS 3 Xrotation Yrotation Zrotation
		JOINT Spine1
		{
			OFFSET 0.147000 13.837402 0.538800
			CHANNELS 3 Xrotation Yrotation Zrotation
			JOINT Spine2
			{
				OFFSET 0.168000 16.242897 -1.435500
				CHANNELS 3 Xrotation Yrotation Zrotation
				JOINT Neck
				{
					OFFSET 0.217200 18.631500 -1.679100
					CHANNELS 3 Xrotation Yrotation Zrotation
					JOINT Head
					{
						OFFSET 0.000000 6.599396 1.385900
						CHANNELS 3 Xrotation Yrotation Zrotation
						JOINT Hat
						{
							OFFSET -0.532200 27.220596 -10.096100
							CHANNELS 3 Xrotation Yrotation Zrotation
							End Site
							{
								OFFSET 0.000000 22.029861 0.000000
							}
						}
						JOINT HairD
						{
							OFFSET -10.777400 17.437393 -1.325900
							CHANNELS 3 Xrotation Yrotation Zrotation
							JOINT HairD1
							{
								OFFSET -3.290299 -11.051193 1.062200
								CHANNELS 3 Xrotation Yrotation Zrotation
								End Site
								{
									OFFSET 0.000000 11.579437 0.000000
								}
							}
						}
						JOINT HairB
						{
							OFFSET -10.777400 17.437393 1.467900
							CHANNELS 3 Xrotation Yrotation Zrotation
							JOINT HairB1
							{
								OFFSET -1.561200 -12.956299 3.590200
								CHANNELS 3 Xrotation Yrotation Zrotation
								End Site
								{
									OFFSET 0.000000 13.534866 0.000000
								}
							}
						}
						JOINT HairA
						{
							OFFSET 9.713100 17.437393 1.467900
							CHANNELS 3 Xrotation Yrotation Zrotation
							JOINT HairA1
							{
								OFFSET 1.561200 -12.956299 3.590200
								CHANNELS 3 Xrotation Yrotation Zrotation
								End Site
								{
									OFFSET 0.000000 13.534866 0.000000
								}
							}
						}
						JOINT HairC
						{
							OFFSET 9.713100 17.437393 -1.325900
							CHANNELS 3 Xrotation Yrotation Zrotation
							JOINT HairC1
							{
								OFFSET 3.290300 -11.051193 1.062200
								CHANNELS 3 Xrotation Yrotation Zrotation
								End Site
								{
									OFFSET 0.000000 11.579437 0.000000
								}
							}
						}
					}
				}
				JOINT LeftShoulder
				{
					OFFSET 5.101800 15.108002 -2.763700
					CHANNELS 3 Xrotation Yrotation Zrotation
					JOINT LeftArm
					{
						OFFSET 9.825497 2.506317 -1.597400
						CHANNELS 3 Xrotation Yrotation Zrotation
						JOINT LeftForeArm
						{
							OFFSET 21.966244 0.000000 0.000000
							CHANNELS 3 Xrotation Yrotation Zrotation
							JOINT LeftHand
							{
								OFFSET 33.879036 0.000000 0.000000
								CHANNELS 3 Xrotation Yrotation Zrotation
								JOINT LeftHandThumb1
								{
									OFFSET 6.715286 -2.359680 3.363841
									CHANNELS 3 Xrotation Yrotation Zrotation
									JOINT LeftHandThumb2
									{
										OFFSET 2.507072 -1.447464 1.447461
										CHANNELS 3 Xrotation Yrotation Zrotation
										JOINT LeftHandThumb3
										{
											OFFSET 2.898338 -1.673355 1.673357
											CHANNELS 3 Xrotation Yrotation Zrotation
											End Site
											{
												OFFSET -0.295959 3.727692 -0.131651
											}
										}
									}
								}
								JOINT LeftHandIndex1
								{
									OFFSET 14.190811 -0.254547 3.840278
									CHANNELS 3 Xrotation Yrotation Zrotation
									JOINT LeftHandIndex2
									{
										OFFSET 3.551727 0.000000 -0.000000
										CHANNELS 3 Xrotation Yrotation Zrotation
										JOINT LeftHandIndex3
										{
											OFFSET 2.894196 0.000000 0.000000
											CHANNELS 3 Xrotation Yrotation Zrotation
											End Site
											{
												OFFSET -1.000603 2.690872 0.366626
											}
										}
									}
								}
								JOINT LeftHandMiddle1
								{
									OFFSET 13.776489 0.000000 0.000000
									CHANNELS 3 Xrotation Yrotation Zrotation
									JOINT LeftHandMiddle2
									{
										OFFSET 3.438232 0.000000 0.000000
										CHANNELS 3 Xrotation Yrotation Zrotation
										JOINT LeftHandMiddle3
										{
											OFFSET 3.691551 0.000000 0.000000
											CHANNELS 3 Xrotation Yrotation Zrotation
											End Site
											{
												OFFSET -1.082298 3.499527 0.457670
											}
										}
									}
								}
								JOINT LeftHandRing1
								{
									OFFSET 13.966164 -0.268127 -3.067488
									CHANNELS 3 Xrotation Yrotation Zrotation
									JOINT LeftHandRing2
									{
										OFFSET 3.162567 0.000000 0.000000
										CHANNELS 3 Xrotation Yrotation Zrotation
										JOINT LeftHandRing3
										{
											OFFSET 3.324348 0.000000 0.000000
											CHANNELS 3 Xrotation Yrotation Zrotation
											End Site
											{
												OFFSET -0.861900 3.184998 0.405154
											}
										}
									}
								}
								JOINT LeftHandPinky1
								{
									OFFSET 13.131393 -0.168503 -5.746925
									CHANNELS 3 Xrotation Yrotation Zrotation
									JOINT LeftHandPinky2
									{
										OFFSET 2.849182 0.000000 0.000000
										CHANNELS 3 Xrotation Yrotation Zrotation
										JOINT LeftHandPinky3
										{
											OFFSET 2.805038 0.000000 0.000000
											CHANNELS 3 Xrotation Yrotation Zrotation
											End Site
											{
												OFFSET -0.882500 2.642609 0.325652
											}
										}
									}
								}
							}
							JOINT Left_Sleeve
							{
								OFFSET 6.592125 -0.646545 0.805568
								CHANNELS 3 Xrotation Yrotation Zrotation
								End Site
								{
									OFFSET -0.000179 20.275787 -0.000000
								}
							}
						}
					}
				}
				JOINT RightShoulder
				{
					OFFSET -5.731700 15.108002 -2.763700
					CHANNELS 3 Xrotation Yrotation Zrotation
					JOINT RightArm
					{
						OFFSET -9.825497 2.506317 -1.597400
						CHANNELS 3 Xrotation Yrotation Zrotation
						JOINT RightForeArm
						{
							OFFSET -21.966242 0.000000 0.000000
							CHANNELS 3 Xrotation Yrotation Zrotation
							JOINT RightHand
							{
								OFFSET -33.879032 0.000000 0.000000
								CHANNELS 3 Xrotation Yrotation Zrotation
								JOINT RightHandThumb1
								{
									OFFSET -6.715286 -2.359680 3.363841
									CHANNELS 3 Xrotation Yrotation Zrotation
									JOINT RightHandThumb2
									{
										OFFSET -2.507072 -1.447464 1.447461
										CHANNELS 3 Xrotation Yrotation Zrotation
										JOINT RightHandThumb3
										{
											OFFSET -2.898338 -1.673355 1.673357
											CHANNELS 3 Xrotation Yrotation Zrotation
											End Site
											{
												OFFSET 0.295959 3.727692 -0.131651
											}
										}
									}
								}
								JOINT RightHandIndex1
								{
									OFFSET -14.190811 -0.254547 3.840278
									CHANNELS 3 Xrotation Yrotation Zrotation
									JOINT RightHandIndex2
									{
										OFFSET -3.551727 0.000000 -0.000000
										CHANNELS 3 Xrotation Yrotation Zrotation
										JOINT RightHandIndex3
										{
											OFFSET -2.894196 0.000000 0.000000
											CHANNELS 3 Xrotation Yrotation Zrotation
											End Site
											{
												OFFSET 1.000603 2.690872 0.366626
											}
										}
									}
								}
								JOINT RightHandMiddle1
								{
									OFFSET -13.776489 0.000000 0.000000
									CHANNELS 3 Xrotation Yrotation Zrotation
									JOINT RightHandMiddle2
									{
										OFFSET -3.438232 0.000000 0.000000
										CHANNELS 3 Xrotation Yrotation Zrotation
										JOINT RightHandMiddle3
										{
											OFFSET -3.691551 0.000000 0.000000
											CHANNELS 3 Xrotation Yrotation Zrotation
											End Site
											{
												OFFSET 1.082298 3.499527 0.457670
											}
										}
									}
								}
								JOINT RightHandRing1
								{
									OFFSET -13.966164 -0.268127 -3.067488
									CHANNELS 3 Xrotation Yrotation Zrotation
									JOINT RightHandRing2
									{
										OFFSET -3.162567 0.000000 0.000000
										CHANNELS 3 Xrotation Yrotation Zrotation
										JOINT RightHandRing3
										{
											OFFSET -3.324348 0.000000 0.000000
											CHANNELS 3 Xrotation Yrotation Zrotation
											End Site
											{
												OFFSET 0.861900 3.184998 0.405154
											}
										}
									}
								}
								JOINT RightHandPinky1
								{
									OFFSET -13.131393 -0.168503 -5.746925
									CHANNELS 3 Xrotation Yrotation Zrotation
									JOINT RightHandPinky2
									{
										OFFSET -2.849182 0.000000 0.000000
										CHANNELS 3 Xrotation Yrotation Zrotation
										JOINT RightHandPinky3
										{
											OFFSET -2.805038 0.000000 0.000000
											CHANNELS 3 Xrotation Yrotation Zrotation
											End Site
											{
												OFFSET 0.882500 2.642609 0.325652
											}
										}
									}
								}
							}
							JOINT Right_Sleeve
							{
								OFFSET -6.592125 -0.646545 0.805568
								CHANNELS 3 Xrotation Yrotation Zrotation
								End Site
								{
									OFFSET 0.000179 20.275787 -0.000000
								}
							}
						}
					}
				}
				JOINT Bind_Right_JacketString
				{
					OFFSET -3.534800 11.969597 7.200700
					CHANNELS 3 Xrotation Yrotation Zrotation
					JOINT Bind_Right_JacketString1
					{
						OFFSET -0.319900 -6.102600 2.794100
						CHANNELS 3 Xrotation Yrotation Zrotation
						End Site
						{
							OFFSET 0.000000 6.719452 0.000000
						}
					}
				}
				JOINT Bind_Left_JacketString
				{
					OFFSET 2.904800 11.969597 7.200700
					CHANNELS 3 Xrotation Yrotation Zrotation
					JOINT Bind_Left_JacketString1
					{
						OFFSET 0.364800 -5.904503 3.186800
						CHANNELS 3 Xrotation Yrotation Zrotation
						End Site
						{
							OFFSET 0.000000 6.719513 0.000000
						}
					}
				}
				JOINT HairE
				{
					OFFSET 5.915200 17.612701 -11.592200
					CHANNELS 3 Xrotation Yrotation Zrotation
					JOINT HairE1
					{
						OFFSET 0.289200 -7.171898 -1.284500
						CHANNELS 3 Xrotation Yrotation Zrotation
						End Site
						{
							OFFSET 0.000000 7.291756 0.000000
						}
					}
				}
				JOINT HairF
				{
					OFFSET -0.864800 17.612701 -11.592200
					CHANNELS 3 Xrotation Yrotation Zrotation
					JOINT HairF1
					{
						OFFSET 0.000000 -14.087097 -2.127501
						CHANNELS 3 Xrotation Yrotation Zrotation
						End Site
						{
							OFFSET 0.000000 14.246841 0.000000
						}
					}
				}
				JOINT HairG
				{
					OFFSET -8.087700 17.612701 -11.592200
					CHANNELS 3 Xrotation Yrotation Zrotation
					JOINT HairG1
					{
						OFFSET -0.293600 -6.081398 -0.910100
						CHANNELS 3 Xrotation Yrotation Zrotation
						End Site
						{
							OFFSET 0.000000 6.156120 0.000000
						}
					}
				}
			}
		}
	}
	JOINT Pouch
	{
		OFFSET 0.000000 4.394501 10.847300
		CHANNELS 3 Xrotation Yrotation Zrotation
		End Site
		{
			OFFSET 0.000000 21.880577 0.000000
		}
	}
	JOINT Bag
	{
		OFFSET -13.229000 4.813004 -0.593300
		CHANNELS 3 Xrotation Yrotation Zrotation
		End Site
		{
			OFFSET 0.000000 21.880577 0.000000
		}
	}
	JOINT OccupyGuyFacialAnim_Joint
	{
		OFFSET 1.000000 -70.206398 -1.655000
		CHANNELS 3 Xrotation Yrotation Zrotation
		End Site
		{
			OFFSET 0.000000 21.880577 0.000000
		}
	}
}
MOTION
Frames: 4
Frame Time: 0.033333
0.092739 68.572418 1.292868 -2.344549 6.026304 2.535600 0.000000 -0.000000 0.000000 -15.908125 0.743763 -0.406602 34.331683 -6.774394 5.837551 -18.524308 1.496614 -6.119621 -0.000000 0.000000 0.000000 -0.000001 0.000000 -0.000000 -17.552014 0.332477 -1.664747 43.083792 9.643708 -5.217947 -18.343052 11.155630 -0.427503 -0.000000 0.000000 0.000000 -0.000001 -0.000001 -0.000000 9.242683 4.471405 -1.614918 0.882893 1.291301 0.136865 0.888758 1.278629 0.128779 -1.136964 -7.339699 0.254258 19.671039 -52.535964 29.197095 0.000001 -0.000002 -0.000000 0.000001 -0.000002 -0.000000 0.000001 -0.000002 -0.000000 0.000001 -0.000002 -0.000000 0.000001 -0.000001 0.000001 0.000001 -0.000002 -0.000000 0.000001 -0.000001 0.000001 0.000001 -0.000002 -0.000000 0.000001 -0.000002 -0.000000 0.896469 4.043583 -14.383593 33.304501 -6.827278 -62.628217 -0.000000 -44.755330 -0.000014 44.206828 -13.019882 2.965793 -4.315958 -1.824947 22.645508 19.247012 15.515441 -14.160479 0.000001 0.000001 0.000001 -1.056249 -0.760031 -36.551983 2.066349 4.465387 -49.646733 0.000004 -0.000002 -0.000001 0.917248 5.454210 -37.237764 1.905966 4.324437 -47.554168 0.000000 -0.000001 -0.000001 3.621398 8.310132 -45.177385 2.200035 4.575297 -51.343020 -0.000001 -0.000001 -0.000001 -5.324524 11.189351 -45.989802 2.098095 4.492110 -50.053347 -0.000000 -0.000003 0.000003 0.000000 -0.000000 -0.000000 0.925437 -1.590336 17.320472 23.114600 10.380579 54.874413 -0.000023 76.007807 0.000032 16.482322 15.137897 -10.843059 -3.193316 0.800322 -14.805294 18.019591 -16.928303 5.340544 -0.000003 -0.000001 0.000003 -1.136069 4.069653 29.285631 2.108392 -3.899082 56.790554 0.000001 -0.000001 0.000002 -2.082911 -1.639980 41.596163 1.809601 -3.686705 52.275823 0.000001 -0.000003 0.000002 1.250836 -5.446449 48.879245 1.890040 -3.747416 53.516479 0.000002 0.000000 0.000002 -8.509977 -17.038236 45.549104 1.481770 -3.408506 46.981395 0.000002 0.000002 -0.000003 0.000001 -0.000001 0.000003 0.000000 -0.000000 0.000000 0.000000 -0.000000 0.000000 0.000000 -0.000000 0.000000 0.000000 -0.000000 0.000000 0.000000 -0.000000 0.000000 0.000000 -0.000000 0.000000 0.000000 -0.000000 0.000000 0.000000 -0.000000 0.000000 0.000000 -0.000000 0.000000 0.000000 -0.000000 0.000000 0.000000 -0.000000 0.000000 0.000000 -0.000000 0.000000 0.000000 -0.000000 0.000000 
0.574193 68.875397 1.681608 -2.630108 2.334709 1.889398 0.000000 -0.000000 -0.000000 -13.820920 1.417564 -0.497376 32.822314 -3.616846 6.374507 -18.728150 1.619477 -6.707919 -0.000000 -0.000000 0.000000 0.000001 0.000000 0.000001 -18.530839 -0.416246 -2.228467 44.052845 9.539388 -3.977361 -17.257351 8.055828 1.753745 -0.000000 0.000001 -0.000000 0.000000 -0.000000 0.000000 9.717226 3.288366 -0.911103 1.002757 0.936462 0.191812 1.008363 0.924157 0.187144 -0.981880 -7.298551 0.311938 20.104995 -52.386287 29.453972 -0.000001 -0.000003 0.000001 -0.000001 -0.000003 0.000001 -0.000001 -0.000003 0.000001 -0.000001 -0.000003 0.000001 -0.000001 -0.000001 -0.000000 -0.000001 -0.000003 0.000001 -0.000001 -0.000001 -0.000000 -0.000001 -0.000003 0.000001 -0.000001 -0.000003 0.000001 0.765209 3.143205 -13.612604 29.628083 -4.819432 -63.185848 0.000008 -47.096535 0.000010 35.933253 -14.437376 7.828393 -4.306014 -2.180763 22.531431 19.654400 16.415760 -14.322698 -0.000000 -0.000000 0.000002 -1.541766 -0.563252 -40.834351 2.316835 4.666018 -52.792827 -0.000001 -0.000000 -0.000000 0.652137 5.212264 -40.597504 2.084875 4.481037 -49.884433 0.000001 0.000002 0.000003 3.338780 7.937422 -47.120328 2.435485 4.753476 -54.237849 -0.000000 0.000001 0.000000 -5.468772 10.886317 -46.770615 2.211383 4.584330 -51.485286 -0.000002 -0.000004 0.000002 0.000001 -0.000001 0.000000 1.038025 -2.662224 18.020537 22.688218 7.554410 55.178353 0.000034 72.319423 -0.000012 14.867689 12.544967 -11.046960 -3.193316 0.800318 -14.805289 17.654376 -16.039738 4.831150 0.000005 -0.000002 -0.000000 -1.018550 3.755640 29.477782 2.120369 -3.906902 56.966459 -0.000001 0.000001 0.000002 -1.926566 -1.785240 41.336916 1.813746 -3.689877 52.340122 0.000002 -0.000000 -0.000001 1.531178 -5.687957 48.119212 1.892091 -3.748939 53.548178 -0.000000 -0.000001 -0.000002 -8.527658 -16.674650 43.828460 1.510534 -3.435078 47.463377 0.000002 0.000002 -0.000004 -0.000001 -0.000002 -0.000002 0.000001 -0.000001 -0.000000 0.000001 0.000000 0.000000 0.000001 -0.000001 -0.000000 0.000001 -0.000001 -0.000000 0.000001 -0.000001 -0.000000 0.000001 0.000000 0.000000 0.000001 -0.000001 -0.000000 0.000001 -0.000001 -0.000000 0.000001 -0.000001 -0.000000 0.000001 0.000000 0.000000 0.000000 -0.000000 -0.000000 0.000000 -0.000000 -0.000000 0.000000 -0.000000 -0.000000 
1.285505 69.413933 2.316047 -2.701186 -2.168305 0.973046 0.000000 -0.000000 0.000000 -10.954658 3.006892 -0.270773 29.753551 -0.855930 6.356999 -18.422134 1.674200 -6.665977 -0.000000 0.000000 -0.000000 0.000001 -0.000000 0.000000 -20.641660 -1.753933 -3.444861 46.814697 10.070212 -2.468816 -16.664226 -0.504912 3.869124 0.000000 0.000000 0.000000 -0.000001 -0.000000 -0.000000 9.681301 2.342840 -0.123440 1.046870 0.639757 0.400661 1.050913 0.623500 0.400302 -0.757154 -7.173170 0.292351 20.173683 -51.946604 28.904565 0.000002 -0.000003 -0.000001 0.000002 -0.000003 -0.000001 0.000002 -0.000003 -0.000000 0.000002 -0.000003 -0.000000 0.000001 -0.000001 0.000000 0.000002 -0.000003 -0.000000 0.000001 -0.000001 0.000000 0.000002 -0.000003 -0.000001 0.000002 -0.000003 -0.000001 0.740598 3.042589 -13.396217 26.004443 -1.771525 -63.693966 0.000002 -51.857296 0.000012 18.725963 -18.471700 10.952605 -4.282996 -3.104996 22.235853 20.572390 18.408946 -14.565221 -0.000003 0.000004 -0.000003 -1.858218 -0.400392 -44.886422 2.455634 4.767845 -54.480437 -0.000000 -0.000001 -0.000002 0.479297 5.169223 -44.291041 2.249522 4.614300 -51.960784 0.000006 0.000002 -0.000001 3.222292 7.728400 -49.936117 2.655516 4.903915 -56.851107 -0.000001 -0.000005 0.000001 -5.457529 10.750724 -48.715761 2.324562 4.671865 -52.887592 0.000003 -0.000002 0.000001 0.000000 0.000001 0.000000 1.055398 -2.885892 17.786082 22.980049 4.314905 55.576969 0.000020 69.101488 -0.000015 13.906654 11.052943 -11.545945 -3.193315 0.800323 -14.805296 17.010943 -14.357939 3.903017 0.000001 -0.000006 0.000001 -0.904696 3.033931 31.061545 2.169936 -3.938599 57.691036 0.000003 0.000003 -0.000001 -1.696461 -2.046536 41.314544 1.807022 -3.684715 52.235931 -0.000002 -0.000001 0.000001 1.731231 -5.870134 47.364941 1.904772 -3.758228 53.741472 0.000004 0.000000 -0.000002 -9.050200 -15.883052 40.228195 1.580350 -3.497742 48.618195 0.000000 0.000001 0.000001 0.000003 0.000001 0.000001 0.000001 0.000000 -0.000000 0.000001 0.000000 0.000000 0.000001 0.000000 -0.000000 0.000001 0.000000 -0.000000 0.000001 0.000000 -0.000000 0.000001 0.000000 0.000000 0.000001 0.000000 -0.000000 0.000001 0.000000 -0.000000 0.000001 0.000000 -0.000000 0.000001 0.000000 0.000000 0.000000 -0.000000 0.000000 0.000000 -0.000000 0.000000 0.000000 -0.000000 0.000000 
2.090978 69.994781 3.007978 -2.525436 -7.193385 0.225631 -0.000000 0.000001 0.000000 -7.885382 4.880951 -0.351435 25.748657 2.111571 5.949460 -17.879323 1.695816 -6.235119 0.000000 0.000000 -0.000000 -0.000001 -0.000000 0.000000 -22.125179 -4.084600 -4.218257 49.498255 6.106736 -1.698741 -18.567839 -7.862374 0.457114 -0.000000 -0.000001 -0.000000 0.000000 0.000000 -0.000000 9.346681 1.831449 0.478354 1.018438 0.471605 0.610939 1.020088 0.451329 0.613134 -0.640717 -7.025436 0.209723 19.878917 -51.339766 28.092312 -0.000002 -0.000001 -0.000000 -0.000002 -0.000001 -0.000000 -0.000002 -0.000001 -0.000000 -0.000002 -0.000001 -0.000000 -0.000002 -0.000000 0.000000 -0.000002 -0.000001 -0.000000 -0.000002 -0.000000 0.000000 -0.000002 -0.000001 -0.000000 -0.000002 -0.000001 -0.000000 0.794538 3.102735 -13.868997 23.450215 -0.580265 -63.753566 0.000008 -59.150429 0.000003 7.854738 -19.464333 11.680930 -4.257763 -4.397190 21.823943 21.934032 21.204722 -14.997757 0.000001 0.000002 -0.000001 -2.044881 -0.289908 -48.720685 2.574004 4.849885 -55.892633 -0.000000 0.000002 0.000002 0.461900 5.312323 -47.731951 2.406598 4.732598 -53.888365 0.000001 -0.000003 0.000000 3.254574 7.669425 -53.042812 2.821838 5.008211 -58.776216 0.000000 0.000000 0.000000 -5.351281 10.719103 -51.556617 2.483212 4.787372 -54.811640 -0.000001 -0.000001 0.000001 -0.000000 -0.000001 0.000000 1.050272 -3.018171 16.922822 23.867929 1.879382 55.967506 0.000018 65.626636 -0.000009 15.803524 10.931846 -12.234510 -3.193317 0.800319 -14.805291 16.734406 -13.627259 3.499316 0.000002 0.000000 -0.000001 -0.792235 2.750653 31.236023 2.164673 -3.935271 57.614264 0.000002 -0.000001 0.000000 -1.696204 -2.108127 41.840981 1.796741 -3.676737 52.075544 -0.000001 0.000001 -0.000002 2.034680 -6.154247 46.969835 1.929479 -3.776206 54.117785 -0.000002 0.000001 -0.000003 -9.308055 -15.365252 37.860323 1.661037 -3.567077 49.927672 0.000004 0.000000 -0.000001 0.000000 0.000001 -0.000001 0.000000 0.000000 -0.000000 0.000000 0.000000 -0.000000 0.000000 0.000000 0.000000 0.000000 0.000000 0.000000 0.000000 0.000000 -0.000000 0.000000 0.000000 -0.000000 0.000000 0.000000 0.000000 0.000000 0.000000 0.000000 0.000000 0.000000 -0.000000 0.000000 0.000000 -0.000000 -0.000000 0.000001 0.000000 -0.000000 0.000001 0.000000 -0.000000 0.000001 0.000000 
